<svg width="1340" height="24" viewBox="0 0 1340 24" fill="none" xmlns="http://www.w3.org/2000/svg">
<circle cx="12" cy="12" r="11.5" stroke="#D9D9D9"/>
<path d="M13.3333 15.6829H12.6667V11.0074C12.6667 10.6381 12.3681 10.3395 12 10.3395H10.6667C10.2985 10.3395 10 10.6381 10 11.0074C10 11.3766 10.2985 11.6565 10.6667 11.6565H11.3333V15.6641H10.6667C10.2985 15.6641 10 15.9628 10 16.3321C10 16.7013 10.2985 17 10.6667 17H13.3333C13.7015 17 14 16.7013 14 16.3321C14 15.9628 13.7021 15.6829 13.3333 15.6829ZM12 9.00359C12.5523 9.00359 13 8.55503 13 8.00169C13 7.44835 12.5521 7 12 7C11.4479 7 11 7.44856 11 8.0019C11 8.55524 11.4477 9.00359 12 9.00359Z" fill="#0065FC"/>
<path d="M35.424 17.5V6.14H40.128C40.6187 6.14 41.0667 6.24133 41.472 6.444C41.888 6.64667 42.2453 6.924 42.544 7.276C42.8427 7.61733 43.0773 8.00133 43.248 8.428C43.4187 8.844 43.504 9.27067 43.504 9.708C43.504 10.3267 43.3653 10.9133 43.088 11.468C42.8213 12.012 42.4427 12.4547 41.952 12.796C41.4613 13.1373 40.8853 13.308 40.224 13.308H36.544V17.5H35.424ZM36.544 12.316H40.176C40.624 12.316 41.0133 12.1933 41.344 11.948C41.6747 11.7027 41.9307 11.3827 42.112 10.988C42.2933 10.5933 42.384 10.1667 42.384 9.708C42.384 9.23867 42.2773 8.80667 42.064 8.412C41.8507 8.01733 41.568 7.708 41.216 7.484C40.8747 7.24933 40.496 7.132 40.08 7.132H36.544V12.316ZM45.2011 5.82H46.2891V15.612C46.2891 16.028 46.3638 16.3 46.5131 16.428C46.6625 16.556 46.8438 16.62 47.0571 16.62C47.2491 16.62 47.4411 16.5987 47.6331 16.556C47.8251 16.5133 47.9905 16.4707 48.1291 16.428L48.3211 17.308C48.1185 17.3933 47.8678 17.4627 47.5691 17.516C47.2811 17.5693 47.0305 17.596 46.8171 17.596C46.3265 17.596 45.9318 17.452 45.6331 17.164C45.3451 16.876 45.2011 16.4813 45.2011 15.98V5.82ZM49.4325 14.06V9.164H50.5205V13.868C50.5205 14.8173 50.6805 15.5267 51.0005 15.996C51.3312 16.4653 51.8165 16.7 52.4565 16.7C52.8832 16.7 53.2938 16.6093 53.6885 16.428C54.0938 16.236 54.4512 15.9693 54.7605 15.628C55.0698 15.276 55.3045 14.8707 55.4645 14.412V9.164H56.5525V16.188C56.5525 16.3373 56.5845 16.4493 56.6485 16.524C56.7125 16.588 56.8085 16.6253 56.9365 16.636V17.5C56.8085 17.5107 56.7072 17.516 56.6325 17.516C56.5578 17.5267 56.4885 17.532 56.4245 17.532C56.2112 17.5107 56.0245 17.4253 55.8645 17.276C55.7152 17.1267 55.6352 16.9453 55.6245 16.732L55.5925 15.612C55.2298 16.252 54.7338 16.7533 54.1045 17.116C53.4858 17.4787 52.8138 17.66 52.0885 17.66C51.2138 17.66 50.5525 17.356 50.1045 16.748C49.6565 16.14 49.4325 15.244 49.4325 14.06ZM61.7485 17.66C61.0658 17.66 60.4312 17.548 59.8445 17.324C59.2578 17.1 58.7512 16.7587 58.3245 16.3L58.7725 15.532C59.2418 15.9693 59.7112 16.2893 60.1805 16.492C60.6605 16.684 61.1672 16.78 61.7005 16.78C62.3512 16.78 62.8792 16.652 63.2845 16.396C63.6898 16.1293 63.8925 15.7507 63.8925 15.26C63.8925 14.9293 63.7912 14.6787 63.5885 14.508C63.3965 14.3267 63.1138 14.1827 62.7405 14.076C62.3778 13.9587 61.9405 13.836 61.4285 13.708C60.8525 13.548 60.3672 13.3827 59.9725 13.212C59.5885 13.0307 59.2952 12.8067 59.0925 12.54C58.9005 12.2627 58.8045 11.9053 58.8045 11.468C58.8045 10.924 58.9378 10.476 59.2045 10.124C59.4818 9.76133 59.8552 9.48933 60.3245 9.308C60.8045 9.116 61.3378 9.02 61.9245 9.02C62.5645 9.02 63.1298 9.12133 63.6205 9.324C64.1112 9.52667 64.5112 9.80933 64.8205 10.172L64.2925 10.908C63.9938 10.5667 63.6365 10.316 63.2205 10.156C62.8152 9.98533 62.3618 9.9 61.8605 9.9C61.5192 9.9 61.1938 9.948 60.8845 10.044C60.5752 10.1293 60.3192 10.2787 60.1165 10.492C59.9245 10.6947 59.8285 10.9773 59.8285 11.34C59.8285 11.6387 59.9032 11.8733 60.0525 12.044C60.2018 12.204 60.4258 12.3427 60.7245 12.46C61.0232 12.5667 61.3912 12.684 61.8285 12.812C62.4578 12.9827 63.0072 13.1587 63.4765 13.34C63.9458 13.5107 64.3085 13.7347 64.5645 14.012C64.8205 14.2893 64.9485 14.6787 64.9485 15.18C64.9485 15.9587 64.6552 16.5667 64.0685 17.004C63.4818 17.4413 62.7085 17.66 61.7485 17.66ZM70.265 13.356C70.265 12.5667 70.425 11.8467 70.745 11.196C71.0757 10.5347 71.529 10.0067 72.105 9.612C72.681 9.21733 73.337 9.02 74.073 9.02C74.7663 9.02 75.385 9.20667 75.929 9.58C76.4837 9.94267 76.9157 10.3853 77.225 10.908V5.82H78.313V16.188C78.313 16.3373 78.345 16.4493 78.409 16.524C78.473 16.588 78.569 16.6253 78.697 16.636V17.5C78.4837 17.532 78.3183 17.5427 78.201 17.532C77.977 17.5213 77.7797 17.4307 77.609 17.26C77.4383 17.0893 77.353 16.9027 77.353 16.7V15.884C77.0223 16.428 76.5743 16.86 76.009 17.18C75.4437 17.5 74.857 17.66 74.249 17.66C73.673 17.66 73.1397 17.5427 72.649 17.308C72.169 17.0733 71.7477 16.7533 71.385 16.348C71.033 15.9427 70.7557 15.484 70.553 14.972C70.361 14.4493 70.265 13.9107 70.265 13.356ZM77.225 14.636V12.06C77.0863 11.676 76.8623 11.3293 76.553 11.02C76.2437 10.7 75.8917 10.4493 75.497 10.268C75.113 10.076 74.729 9.98 74.345 9.98C73.897 9.98 73.4917 10.076 73.129 10.268C72.7663 10.4493 72.4517 10.7 72.185 11.02C71.929 11.34 71.7317 11.7027 71.593 12.108C71.4543 12.5133 71.385 12.9293 71.385 13.356C71.385 13.804 71.4597 14.2307 71.609 14.636C71.769 15.0413 71.993 15.404 72.281 15.724C72.569 16.0333 72.8997 16.2733 73.273 16.444C73.6463 16.6147 74.0517 16.7 74.489 16.7C74.7663 16.7 75.0543 16.6467 75.353 16.54C75.6517 16.4333 75.9343 16.2893 76.201 16.108C76.4783 15.916 76.7077 15.692 76.889 15.436C77.0703 15.18 77.1823 14.9133 77.225 14.636ZM84.3781 17.66C83.7808 17.66 83.2261 17.548 82.7141 17.324C82.2021 17.0893 81.7595 16.7747 81.3861 16.38C81.0128 15.9747 80.7195 15.5107 80.5061 14.988C80.3035 14.4653 80.2021 13.9053 80.2021 13.308C80.2021 12.5293 80.3781 11.8147 80.7301 11.164C81.0928 10.5133 81.5888 9.996 82.2181 9.612C82.8475 9.21733 83.5621 9.02 84.3621 9.02C85.1835 9.02 85.8981 9.21733 86.5061 9.612C87.1248 10.0067 87.6101 10.5293 87.9621 11.18C88.3141 11.82 88.4901 12.524 88.4901 13.292C88.4901 13.3773 88.4901 13.4627 88.4901 13.548C88.4901 13.6227 88.4848 13.6813 88.4741 13.724H81.3381C81.3915 14.3213 81.5568 14.8547 81.8341 15.324C82.1221 15.7827 82.4901 16.1507 82.9381 16.428C83.3968 16.6947 83.8928 16.828 84.4261 16.828C84.9701 16.828 85.4821 16.6893 85.9621 16.412C86.4528 16.1347 86.7941 15.772 86.9861 15.324L87.9301 15.58C87.7595 15.9747 87.4981 16.332 87.1461 16.652C86.7941 16.972 86.3781 17.2227 85.8981 17.404C85.4288 17.5747 84.9221 17.66 84.3781 17.66ZM81.3061 12.94H87.4661C87.4235 12.332 87.2581 11.7987 86.9701 11.34C86.6928 10.8813 86.3248 10.524 85.8661 10.268C85.4181 10.0013 84.9221 9.868 84.3781 9.868C83.8341 9.868 83.3381 10.0013 82.8901 10.268C82.4421 10.524 82.0741 10.8867 81.7861 11.356C81.5088 11.8147 81.3488 12.3427 81.3061 12.94ZM97.2389 19.884C96.4389 19.884 95.7135 19.6813 95.0629 19.276C94.4122 18.8813 93.9269 18.3587 93.6069 17.708L94.3269 17.164C94.6255 17.6867 95.0309 18.108 95.5429 18.428C96.0655 18.748 96.6362 18.908 97.2549 18.908C97.7882 18.908 98.2629 18.7907 98.6789 18.556C99.1055 18.3213 99.4415 17.996 99.6869 17.58C99.9429 17.164 100.071 16.684 100.071 16.14C100.071 15.6173 99.9482 15.1587 99.7029 14.764C99.4682 14.3587 99.1429 14.044 98.7269 13.82C98.3215 13.596 97.8629 13.484 97.3509 13.484C96.8602 13.484 96.3909 13.596 95.9429 13.82C95.4949 14.0333 95.1322 14.348 94.8549 14.764H93.8469L95.1109 8.364H100.599V9.372H95.9269L95.1429 13.452C95.4202 13.1533 95.7615 12.924 96.1669 12.764C96.5722 12.5933 97.0095 12.508 97.4789 12.508C98.1722 12.508 98.7962 12.6627 99.3509 12.972C99.9162 13.2813 100.364 13.708 100.695 14.252C101.026 14.796 101.191 15.42 101.191 16.124C101.191 16.8707 101.01 17.5267 100.647 18.092C100.295 18.6573 99.8202 19.0947 99.2229 19.404C98.6255 19.724 97.9642 19.884 97.2389 19.884ZM110.678 12.812C110.678 13.7507 110.502 14.588 110.15 15.324C109.808 16.0493 109.334 16.62 108.726 17.036C108.118 17.452 107.43 17.66 106.662 17.66C105.894 17.66 105.206 17.452 104.598 17.036C104 16.62 103.526 16.0493 103.174 15.324C102.822 14.588 102.646 13.7507 102.646 12.812C102.646 11.8733 102.822 11.0413 103.174 10.316C103.526 9.58 104 9.004 104.598 8.588C105.206 8.16133 105.894 7.948 106.662 7.948C107.43 7.948 108.118 8.16133 108.726 8.588C109.334 9.004 109.808 9.58 110.15 10.316C110.502 11.0413 110.678 11.8733 110.678 12.812ZM109.574 12.812C109.574 12.0547 109.451 11.388 109.206 10.812C108.96 10.236 108.619 9.788 108.182 9.468C107.744 9.13733 107.238 8.972 106.662 8.972C106.086 8.972 105.579 9.13733 105.142 9.468C104.704 9.788 104.358 10.236 104.102 10.812C103.856 11.388 103.734 12.0547 103.734 12.812C103.734 13.5693 103.856 14.236 104.102 14.812C104.358 15.388 104.704 15.836 105.142 16.156C105.579 16.476 106.086 16.636 106.662 16.636C107.238 16.636 107.744 16.476 108.182 16.156C108.619 15.8253 108.96 15.3773 109.206 14.812C109.451 14.236 109.574 13.5693 109.574 12.812ZM120.475 12.812C120.475 13.7507 120.299 14.588 119.947 15.324C119.605 16.0493 119.131 16.62 118.523 17.036C117.915 17.452 117.227 17.66 116.459 17.66C115.691 17.66 115.003 17.452 114.395 17.036C113.797 16.62 113.323 16.0493 112.971 15.324C112.619 14.588 112.443 13.7507 112.443 12.812C112.443 11.8733 112.619 11.0413 112.971 10.316C113.323 9.58 113.797 9.004 114.395 8.588C115.003 8.16133 115.691 7.948 116.459 7.948C117.227 7.948 117.915 8.16133 118.523 8.588C119.131 9.004 119.605 9.58 119.947 10.316C120.299 11.0413 120.475 11.8733 120.475 12.812ZM119.371 12.812C119.371 12.0547 119.248 11.388 119.003 10.812C118.757 10.236 118.416 9.788 117.979 9.468C117.541 9.13733 117.035 8.972 116.459 8.972C115.883 8.972 115.376 9.13733 114.939 9.468C114.501 9.788 114.155 10.236 113.899 10.812C113.653 11.388 113.531 12.0547 113.531 12.812C113.531 13.5693 113.653 14.236 113.899 14.812C114.155 15.388 114.501 15.836 114.939 16.156C115.376 16.476 115.883 16.636 116.459 16.636C117.035 16.636 117.541 16.476 117.979 16.156C118.416 15.8253 118.757 15.3773 119.003 14.812C119.248 14.236 119.371 13.5693 119.371 12.812ZM126.686 5.82H127.774V15.612C127.774 16.028 127.848 16.3 127.998 16.428C128.147 16.556 128.328 16.62 128.542 16.62C128.734 16.62 128.926 16.5987 129.118 16.556C129.31 16.5133 129.475 16.4707 129.614 16.428L129.806 17.308C129.603 17.3933 129.352 17.4627 129.054 17.516C128.766 17.5693 128.515 17.596 128.302 17.596C127.811 17.596 127.416 17.452 127.118 17.164C126.83 16.876 126.686 16.4813 126.686 15.98V5.82ZM134.549 17.66C133.952 17.66 133.397 17.548 132.885 17.324C132.384 17.0893 131.946 16.7747 131.573 16.38C131.21 15.9747 130.928 15.516 130.725 15.004C130.522 14.4813 130.421 13.932 130.421 13.356C130.421 12.7587 130.522 12.204 130.725 11.692C130.928 11.1693 131.216 10.7107 131.589 10.316C131.962 9.91067 132.4 9.596 132.901 9.372C133.413 9.13733 133.968 9.02 134.565 9.02C135.162 9.02 135.712 9.13733 136.213 9.372C136.714 9.596 137.152 9.91067 137.525 10.316C137.898 10.7107 138.186 11.1693 138.389 11.692C138.592 12.204 138.693 12.7587 138.693 13.356C138.693 13.932 138.592 14.4813 138.389 15.004C138.186 15.516 137.898 15.9747 137.525 16.38C137.162 16.7747 136.725 17.0893 136.213 17.324C135.712 17.548 135.157 17.66 134.549 17.66ZM131.525 13.372C131.525 13.9907 131.658 14.556 131.925 15.068C132.202 15.5693 132.57 15.9693 133.029 16.268C133.488 16.556 133.994 16.7 134.549 16.7C135.104 16.7 135.61 16.5507 136.069 16.252C136.528 15.9533 136.896 15.548 137.173 15.036C137.45 14.5133 137.589 13.948 137.589 13.34C137.589 12.7213 137.45 12.156 137.173 11.644C136.896 11.132 136.528 10.7267 136.069 10.428C135.61 10.1293 135.104 9.98 134.549 9.98C133.994 9.98 133.488 10.1347 133.029 10.444C132.581 10.7533 132.218 11.164 131.941 11.676C131.664 12.1773 131.525 12.7427 131.525 13.372ZM143.857 17.612C143.291 17.612 142.769 17.4947 142.289 17.26C141.809 17.0253 141.393 16.7107 141.041 16.316C140.699 15.9107 140.433 15.452 140.241 14.94C140.049 14.428 139.953 13.9 139.953 13.356C139.953 12.7693 140.043 12.22 140.225 11.708C140.417 11.1853 140.683 10.7213 141.025 10.316C141.377 9.91067 141.787 9.596 142.257 9.372C142.726 9.13733 143.249 9.02 143.825 9.02C144.539 9.02 145.158 9.20133 145.681 9.564C146.214 9.92667 146.662 10.3747 147.025 10.908V9.164H148.001V17.532C148.001 18.3 147.814 18.9453 147.441 19.468C147.078 20.0013 146.582 20.4013 145.953 20.668C145.334 20.9347 144.657 21.068 143.921 21.068C142.971 21.068 142.203 20.8973 141.617 20.556C141.03 20.2147 140.55 19.756 140.177 19.18L140.849 18.652C141.179 19.1747 141.617 19.564 142.161 19.82C142.715 20.076 143.302 20.204 143.921 20.204C144.465 20.204 144.961 20.1027 145.409 19.9C145.867 19.708 146.23 19.4147 146.497 19.02C146.774 18.6253 146.913 18.1293 146.913 17.532V15.884C146.593 16.4067 146.155 16.828 145.601 17.148C145.046 17.4573 144.465 17.612 143.857 17.612ZM144.161 16.7C144.491 16.7 144.806 16.6413 145.105 16.524C145.414 16.4067 145.697 16.252 145.953 16.06C146.209 15.8573 146.422 15.6333 146.593 15.388C146.763 15.1427 146.87 14.892 146.913 14.636V12.06C146.753 11.6547 146.523 11.2973 146.225 10.988C145.926 10.668 145.585 10.4227 145.201 10.252C144.827 10.0707 144.438 9.98 144.033 9.98C143.563 9.98 143.142 10.0813 142.769 10.284C142.406 10.476 142.097 10.7373 141.841 11.068C141.595 11.388 141.403 11.7507 141.265 12.156C141.126 12.5613 141.057 12.9667 141.057 13.372C141.057 13.82 141.137 14.2467 141.297 14.652C141.457 15.0467 141.675 15.404 141.953 15.724C142.241 16.0333 142.571 16.2733 142.945 16.444C143.329 16.6147 143.734 16.7 144.161 16.7ZM154.003 17.66C153.406 17.66 152.851 17.548 152.339 17.324C151.827 17.0893 151.384 16.7747 151.011 16.38C150.638 15.9747 150.344 15.5107 150.131 14.988C149.928 14.4653 149.827 13.9053 149.827 13.308C149.827 12.5293 150.003 11.8147 150.355 11.164C150.718 10.5133 151.214 9.996 151.843 9.612C152.472 9.21733 153.187 9.02 153.987 9.02C154.808 9.02 155.523 9.21733 156.131 9.612C156.75 10.0067 157.235 10.5293 157.587 11.18C157.939 11.82 158.115 12.524 158.115 13.292C158.115 13.3773 158.115 13.4627 158.115 13.548C158.115 13.6227 158.11 13.6813 158.099 13.724H150.963C151.016 14.3213 151.182 14.8547 151.459 15.324C151.747 15.7827 152.115 16.1507 152.563 16.428C153.022 16.6947 153.518 16.828 154.051 16.828C154.595 16.828 155.107 16.6893 155.587 16.412C156.078 16.1347 156.419 15.772 156.611 15.324L157.555 15.58C157.384 15.9747 157.123 16.332 156.771 16.652C156.419 16.972 156.003 17.2227 155.523 17.404C155.054 17.5747 154.547 17.66 154.003 17.66ZM150.931 12.94H157.091C157.048 12.332 156.883 11.7987 156.595 11.34C156.318 10.8813 155.95 10.524 155.491 10.268C155.043 10.0013 154.547 9.868 154.003 9.868C153.459 9.868 152.963 10.0013 152.515 10.268C152.067 10.524 151.699 10.8867 151.411 11.356C151.134 11.8147 150.974 12.3427 150.931 12.94ZM172.194 17.5H171.106V12.844C171.106 11.8733 170.951 11.1587 170.642 10.7C170.332 10.2413 169.874 10.012 169.266 10.012C168.636 10.012 168.071 10.236 167.57 10.684C167.079 11.132 166.732 11.708 166.53 12.412V17.5H165.442V12.844C165.442 11.8627 165.292 11.148 164.994 10.7C164.695 10.2413 164.236 10.012 163.618 10.012C162.999 10.012 162.439 10.2307 161.938 10.668C161.436 11.1053 161.084 11.6813 160.882 12.396V17.5H159.794V9.164H160.786V11.052C161.138 10.4013 161.586 9.9 162.13 9.548C162.684 9.196 163.298 9.02 163.97 9.02C164.663 9.02 165.223 9.21733 165.65 9.612C166.076 10.0067 166.338 10.524 166.434 11.164C166.818 10.46 167.276 9.92667 167.81 9.564C168.354 9.20133 168.967 9.02 169.65 9.02C170.119 9.02 170.514 9.10533 170.834 9.276C171.164 9.44667 171.426 9.692 171.618 10.012C171.82 10.3213 171.964 10.7 172.05 11.148C172.146 11.5853 172.194 12.076 172.194 12.62V17.5ZM178.097 17.66C177.5 17.66 176.945 17.548 176.433 17.324C175.921 17.0893 175.478 16.7747 175.105 16.38C174.732 15.9747 174.438 15.5107 174.225 14.988C174.022 14.4653 173.921 13.9053 173.921 13.308C173.921 12.5293 174.097 11.8147 174.449 11.164C174.812 10.5133 175.308 9.996 175.937 9.612C176.566 9.21733 177.281 9.02 178.081 9.02C178.902 9.02 179.617 9.21733 180.225 9.612C180.844 10.0067 181.329 10.5293 181.681 11.18C182.033 11.82 182.209 12.524 182.209 13.292C182.209 13.3773 182.209 13.4627 182.209 13.548C182.209 13.6227 182.204 13.6813 182.193 13.724H175.057C175.11 14.3213 175.276 14.8547 175.553 15.324C175.841 15.7827 176.209 16.1507 176.657 16.428C177.116 16.6947 177.612 16.828 178.145 16.828C178.689 16.828 179.201 16.6893 179.681 16.412C180.172 16.1347 180.513 15.772 180.705 15.324L181.649 15.58C181.478 15.9747 181.217 16.332 180.865 16.652C180.513 16.972 180.097 17.2227 179.617 17.404C179.148 17.5747 178.641 17.66 178.097 17.66ZM175.025 12.94H181.185C181.142 12.332 180.977 11.7987 180.689 11.34C180.412 10.8813 180.044 10.524 179.585 10.268C179.137 10.0013 178.641 9.868 178.097 9.868C177.553 9.868 177.057 10.0013 176.609 10.268C176.161 10.524 175.793 10.8867 175.505 11.356C175.228 11.8147 175.068 12.3427 175.025 12.94ZM190.896 17.5H189.808V12.844C189.808 11.8627 189.664 11.148 189.376 10.7C189.088 10.2413 188.634 10.012 188.016 10.012C187.589 10.012 187.168 10.1187 186.752 10.332C186.336 10.5347 185.968 10.8173 185.648 11.18C185.338 11.532 185.114 11.9373 184.976 12.396V17.5H183.888V9.164H184.88V11.052C185.104 10.6467 185.397 10.2947 185.76 9.996C186.122 9.68667 186.533 9.44667 186.992 9.276C187.45 9.10533 187.925 9.02 188.416 9.02C188.874 9.02 189.264 9.10533 189.584 9.276C189.904 9.44667 190.16 9.692 190.352 10.012C190.544 10.3213 190.682 10.7 190.767 11.148C190.853 11.5853 190.896 12.076 190.896 12.62V17.5ZM197.138 17.1C197.052 17.132 196.919 17.1907 196.738 17.276C196.556 17.3613 196.338 17.436 196.082 17.5C195.826 17.564 195.548 17.596 195.25 17.596C194.94 17.596 194.647 17.5373 194.37 17.42C194.103 17.3027 193.89 17.1267 193.73 16.892C193.57 16.6467 193.49 16.348 193.49 15.996V10.028H192.338V9.164H193.49V6.348H194.578V9.164H196.498V10.028H194.578V15.692C194.599 15.9907 194.706 16.2147 194.898 16.364C195.1 16.5133 195.33 16.588 195.586 16.588C195.884 16.588 196.156 16.54 196.402 16.444C196.647 16.3373 196.796 16.2627 196.85 16.22L197.138 17.1ZM201.233 17.66C200.55 17.66 199.916 17.548 199.329 17.324C198.742 17.1 198.236 16.7587 197.809 16.3L198.257 15.532C198.726 15.9693 199.196 16.2893 199.665 16.492C200.145 16.684 200.652 16.78 201.185 16.78C201.836 16.78 202.364 16.652 202.769 16.396C203.174 16.1293 203.377 15.7507 203.377 15.26C203.377 14.9293 203.276 14.6787 203.073 14.508C202.881 14.3267 202.598 14.1827 202.225 14.076C201.862 13.9587 201.425 13.836 200.913 13.708C200.337 13.548 199.852 13.3827 199.457 13.212C199.073 13.0307 198.78 12.8067 198.577 12.54C198.385 12.2627 198.289 11.9053 198.289 11.468C198.289 10.924 198.422 10.476 198.689 10.124C198.966 9.76133 199.34 9.48933 199.809 9.308C200.289 9.116 200.822 9.02 201.409 9.02C202.049 9.02 202.614 9.12133 203.105 9.324C203.596 9.52667 203.996 9.80933 204.305 10.172L203.777 10.908C203.478 10.5667 203.121 10.316 202.705 10.156C202.3 9.98533 201.846 9.9 201.345 9.9C201.004 9.9 200.678 9.948 200.369 10.044C200.06 10.1293 199.804 10.2787 199.601 10.492C199.409 10.6947 199.313 10.9773 199.313 11.34C199.313 11.6387 199.388 11.8733 199.537 12.044C199.686 12.204 199.91 12.3427 200.209 12.46C200.508 12.5667 200.876 12.684 201.313 12.812C201.942 12.9827 202.492 13.1587 202.961 13.34C203.43 13.5107 203.793 13.7347 204.049 14.012C204.305 14.2893 204.433 14.6787 204.433 15.18C204.433 15.9587 204.14 16.5667 203.553 17.004C202.966 17.4413 202.193 17.66 201.233 17.66ZM213.045 17.66C212.363 17.66 211.728 17.548 211.141 17.324C210.555 17.1 210.048 16.7587 209.621 16.3L210.069 15.532C210.539 15.9693 211.008 16.2893 211.477 16.492C211.957 16.684 212.464 16.78 212.997 16.78C213.648 16.78 214.176 16.652 214.581 16.396C214.987 16.1293 215.189 15.7507 215.189 15.26C215.189 14.9293 215.088 14.6787 214.885 14.508C214.693 14.3267 214.411 14.1827 214.037 14.076C213.675 13.9587 213.237 13.836 212.725 13.708C212.149 13.548 211.664 13.3827 211.269 13.212C210.885 13.0307 210.592 12.8067 210.389 12.54C210.197 12.2627 210.101 11.9053 210.101 11.468C210.101 10.924 210.235 10.476 210.501 10.124C210.779 9.76133 211.152 9.48933 211.621 9.308C212.101 9.116 212.635 9.02 213.221 9.02C213.861 9.02 214.427 9.12133 214.917 9.324C215.408 9.52667 215.808 9.80933 216.117 10.172L215.589 10.908C215.291 10.5667 214.933 10.316 214.517 10.156C214.112 9.98533 213.659 9.9 213.157 9.9C212.816 9.9 212.491 9.948 212.181 10.044C211.872 10.1293 211.616 10.2787 211.413 10.492C211.221 10.6947 211.125 10.9773 211.125 11.34C211.125 11.6387 211.2 11.8733 211.349 12.044C211.499 12.204 211.723 12.3427 212.021 12.46C212.32 12.5667 212.688 12.684 213.125 12.812C213.755 12.9827 214.304 13.1587 214.773 13.34C215.243 13.5107 215.605 13.7347 215.861 14.012C216.117 14.2893 216.245 14.6787 216.245 15.18C216.245 15.9587 215.952 16.5667 215.365 17.004C214.779 17.4413 214.005 17.66 213.045 17.66ZM221.596 17.66C220.998 17.66 220.444 17.548 219.932 17.324C219.43 17.0893 218.993 16.7747 218.62 16.38C218.257 15.9747 217.974 15.516 217.772 15.004C217.569 14.4813 217.468 13.932 217.468 13.356C217.468 12.7587 217.569 12.204 217.772 11.692C217.974 11.1693 218.262 10.7107 218.636 10.316C219.009 9.91067 219.446 9.596 219.948 9.372C220.46 9.13733 221.014 9.02 221.612 9.02C222.209 9.02 222.758 9.13733 223.26 9.372C223.761 9.596 224.198 9.91067 224.572 10.316C224.945 10.7107 225.233 11.1693 225.436 11.692C225.638 12.204 225.74 12.7587 225.74 13.356C225.74 13.932 225.638 14.4813 225.436 15.004C225.233 15.516 224.945 15.9747 224.572 16.38C224.209 16.7747 223.772 17.0893 223.26 17.324C222.758 17.548 222.204 17.66 221.596 17.66ZM218.572 13.372C218.572 13.9907 218.705 14.556 218.972 15.068C219.249 15.5693 219.617 15.9693 220.076 16.268C220.534 16.556 221.041 16.7 221.596 16.7C222.15 16.7 222.657 16.5507 223.116 16.252C223.574 15.9533 223.942 15.548 224.22 15.036C224.497 14.5133 224.636 13.948 224.636 13.34C224.636 12.7213 224.497 12.156 224.22 11.644C223.942 11.132 223.574 10.7267 223.116 10.428C222.657 10.1293 222.15 9.98 221.596 9.98C221.041 9.98 220.534 10.1347 220.076 10.444C219.628 10.7533 219.265 11.164 218.988 11.676C218.71 12.1773 218.572 12.7427 218.572 13.372ZM234.567 17.5H233.479V12.844C233.479 11.8627 233.335 11.148 233.047 10.7C232.759 10.2413 232.306 10.012 231.687 10.012C231.261 10.012 230.839 10.1187 230.423 10.332C230.007 10.5347 229.639 10.8173 229.319 11.18C229.01 11.532 228.786 11.9373 228.647 12.396V17.5H227.559V9.164H228.551V11.052C228.775 10.6467 229.069 10.2947 229.431 9.996C229.794 9.68667 230.205 9.44667 230.663 9.276C231.122 9.10533 231.597 9.02 232.087 9.02C232.546 9.02 232.935 9.10533 233.255 9.276C233.575 9.44667 233.831 9.692 234.023 10.012C234.215 10.3213 234.354 10.7 234.439 11.148C234.525 11.5853 234.567 12.076 234.567 12.62V17.5ZM240.809 17.1C240.724 17.132 240.591 17.1907 240.409 17.276C240.228 17.3613 240.009 17.436 239.753 17.5C239.497 17.564 239.22 17.596 238.921 17.596C238.612 17.596 238.319 17.5373 238.041 17.42C237.775 17.3027 237.561 17.1267 237.401 16.892C237.241 16.6467 237.161 16.348 237.161 15.996V10.028H236.009V9.164H237.161V6.348H238.249V9.164H240.169V10.028H238.249V15.692C238.271 15.9907 238.377 16.2147 238.569 16.364C238.772 16.5133 239.001 16.588 239.257 16.588C239.556 16.588 239.828 16.54 240.073 16.444C240.319 16.3373 240.468 16.2627 240.521 16.22L240.809 17.1ZM245.687 13.356C245.687 12.5667 245.847 11.8467 246.167 11.196C246.498 10.5347 246.951 10.0067 247.527 9.612C248.103 9.21733 248.759 9.02 249.495 9.02C250.188 9.02 250.807 9.20667 251.351 9.58C251.906 9.94267 252.338 10.3853 252.647 10.908V5.82H253.735V16.188C253.735 16.3373 253.767 16.4493 253.831 16.524C253.895 16.588 253.991 16.6253 254.119 16.636V17.5C253.906 17.532 253.74 17.5427 253.623 17.532C253.399 17.5213 253.202 17.4307 253.031 17.26C252.86 17.0893 252.775 16.9027 252.775 16.7V15.884C252.444 16.428 251.996 16.86 251.431 17.18C250.866 17.5 250.279 17.66 249.671 17.66C249.095 17.66 248.562 17.5427 248.071 17.308C247.591 17.0733 247.17 16.7533 246.807 16.348C246.455 15.9427 246.178 15.484 245.975 14.972C245.783 14.4493 245.687 13.9107 245.687 13.356ZM252.647 14.636V12.06C252.508 11.676 252.284 11.3293 251.975 11.02C251.666 10.7 251.314 10.4493 250.919 10.268C250.535 10.076 250.151 9.98 249.767 9.98C249.319 9.98 248.914 10.076 248.551 10.268C248.188 10.4493 247.874 10.7 247.607 11.02C247.351 11.34 247.154 11.7027 247.015 12.108C246.876 12.5133 246.807 12.9293 246.807 13.356C246.807 13.804 246.882 14.2307 247.031 14.636C247.191 15.0413 247.415 15.404 247.703 15.724C247.991 16.0333 248.322 16.2733 248.695 16.444C249.068 16.6147 249.474 16.7 249.911 16.7C250.188 16.7 250.476 16.6467 250.775 16.54C251.074 16.4333 251.356 16.2893 251.623 16.108C251.9 15.916 252.13 15.692 252.311 15.436C252.492 15.18 252.604 14.9133 252.647 14.636ZM256.2 17.5V9.164H257.288V17.5H256.2ZM256.2 7.42V5.82H257.288V7.42H256.2ZM262.42 17.66C261.738 17.66 261.103 17.548 260.516 17.324C259.93 17.1 259.423 16.7587 258.996 16.3L259.444 15.532C259.914 15.9693 260.383 16.2893 260.852 16.492C261.332 16.684 261.839 16.78 262.372 16.78C263.023 16.78 263.551 16.652 263.956 16.396C264.362 16.1293 264.564 15.7507 264.564 15.26C264.564 14.9293 264.463 14.6787 264.26 14.508C264.068 14.3267 263.786 14.1827 263.412 14.076C263.05 13.9587 262.612 13.836 262.1 13.708C261.524 13.548 261.039 13.3827 260.644 13.212C260.26 13.0307 259.967 12.8067 259.764 12.54C259.572 12.2627 259.476 11.9053 259.476 11.468C259.476 10.924 259.61 10.476 259.876 10.124C260.154 9.76133 260.527 9.48933 260.996 9.308C261.476 9.116 262.01 9.02 262.596 9.02C263.236 9.02 263.802 9.12133 264.292 9.324C264.783 9.52667 265.183 9.80933 265.492 10.172L264.964 10.908C264.666 10.5667 264.308 10.316 263.892 10.156C263.487 9.98533 263.034 9.9 262.532 9.9C262.191 9.9 261.866 9.948 261.556 10.044C261.247 10.1293 260.991 10.2787 260.788 10.492C260.596 10.6947 260.5 10.9773 260.5 11.34C260.5 11.6387 260.575 11.8733 260.724 12.044C260.874 12.204 261.098 12.3427 261.396 12.46C261.695 12.5667 262.063 12.684 262.5 12.812C263.13 12.9827 263.679 13.1587 264.148 13.34C264.618 13.5107 264.98 13.7347 265.236 14.012C265.492 14.2893 265.62 14.6787 265.62 15.18C265.62 15.9587 265.327 16.5667 264.74 17.004C264.154 17.4413 263.38 17.66 262.42 17.66ZM271.675 17.66C270.981 17.66 270.357 17.4787 269.803 17.116C269.259 16.7533 268.827 16.3053 268.507 15.772V20.908H267.419V9.164H268.395V10.78C268.725 10.2573 269.168 9.836 269.723 9.516C270.277 9.18533 270.869 9.02 271.499 9.02C272.075 9.02 272.603 9.14267 273.083 9.388C273.563 9.62267 273.979 9.94267 274.331 10.348C274.683 10.7533 274.955 11.2173 275.147 11.74C275.349 12.252 275.451 12.7853 275.451 13.34C275.451 14.1187 275.291 14.8387 274.971 15.5C274.661 16.1507 274.224 16.6733 273.659 17.068C273.093 17.4627 272.432 17.66 271.675 17.66ZM271.371 16.7C271.829 16.7 272.24 16.6093 272.603 16.428C272.965 16.236 273.275 15.98 273.531 15.66C273.797 15.34 274 14.9827 274.139 14.588C274.277 14.1827 274.347 13.7667 274.347 13.34C274.347 12.892 274.267 12.4653 274.107 12.06C273.957 11.6547 273.739 11.2973 273.451 10.988C273.163 10.6787 272.832 10.4333 272.459 10.252C272.085 10.0707 271.68 9.98 271.243 9.98C270.965 9.98 270.677 10.0333 270.379 10.14C270.08 10.2467 269.792 10.4013 269.515 10.604C269.248 10.796 269.024 11.0147 268.843 11.26C268.661 11.5053 268.549 11.7667 268.507 12.044V14.604C268.677 14.9987 268.907 15.356 269.195 15.676C269.483 15.9853 269.813 16.236 270.187 16.428C270.571 16.6093 270.965 16.7 271.371 16.7ZM280.846 17.66C280.248 17.66 279.694 17.548 279.182 17.324C278.68 17.0893 278.243 16.7747 277.87 16.38C277.507 15.9747 277.224 15.516 277.022 15.004C276.819 14.4813 276.718 13.932 276.718 13.356C276.718 12.7587 276.819 12.204 277.022 11.692C277.224 11.1693 277.512 10.7107 277.886 10.316C278.259 9.91067 278.696 9.596 279.198 9.372C279.71 9.13733 280.264 9.02 280.862 9.02C281.459 9.02 282.008 9.13733 282.51 9.372C283.011 9.596 283.448 9.91067 283.822 10.316C284.195 10.7107 284.483 11.1693 284.686 11.692C284.888 12.204 284.99 12.7587 284.99 13.356C284.99 13.932 284.888 14.4813 284.686 15.004C284.483 15.516 284.195 15.9747 283.822 16.38C283.459 16.7747 283.022 17.0893 282.51 17.324C282.008 17.548 281.454 17.66 280.846 17.66ZM277.822 13.372C277.822 13.9907 277.955 14.556 278.222 15.068C278.499 15.5693 278.867 15.9693 279.326 16.268C279.784 16.556 280.291 16.7 280.846 16.7C281.4 16.7 281.907 16.5507 282.366 16.252C282.824 15.9533 283.192 15.548 283.47 15.036C283.747 14.5133 283.886 13.948 283.886 13.34C283.886 12.7213 283.747 12.156 283.47 11.644C283.192 11.132 282.824 10.7267 282.366 10.428C281.907 10.1293 281.4 9.98 280.846 9.98C280.291 9.98 279.784 10.1347 279.326 10.444C278.878 10.7533 278.515 11.164 278.238 11.676C277.96 12.1773 277.822 12.7427 277.822 13.372ZM293.817 17.5H292.729V12.844C292.729 11.8627 292.585 11.148 292.297 10.7C292.009 10.2413 291.556 10.012 290.937 10.012C290.511 10.012 290.089 10.1187 289.673 10.332C289.257 10.5347 288.889 10.8173 288.569 11.18C288.26 11.532 288.036 11.9373 287.897 12.396V17.5H286.809V9.164H287.801V11.052C288.025 10.6467 288.319 10.2947 288.681 9.996C289.044 9.68667 289.455 9.44667 289.913 9.276C290.372 9.10533 290.847 9.02 291.337 9.02C291.796 9.02 292.185 9.10533 292.505 9.276C292.825 9.44667 293.081 9.692 293.273 10.012C293.465 10.3213 293.604 10.7 293.689 11.148C293.775 11.5853 293.817 12.076 293.817 12.62V17.5ZM296.138 17.5V9.164H297.226V17.5H296.138ZM296.138 7.42V5.82H297.226V7.42H296.138ZM303.702 17.66C303.051 17.66 302.449 17.4947 301.894 17.164C301.339 16.8227 300.907 16.396 300.598 15.884V17.5H299.622V5.82H300.71V10.908C301.083 10.3427 301.531 9.88933 302.054 9.548C302.577 9.196 303.185 9.02 303.878 9.02C304.465 9.02 304.987 9.14267 305.446 9.388C305.915 9.63333 306.315 9.964 306.646 10.38C306.977 10.7853 307.227 11.2493 307.398 11.772C307.569 12.284 307.654 12.812 307.654 13.356C307.654 13.9427 307.553 14.492 307.35 15.004C307.158 15.516 306.881 15.9747 306.518 16.38C306.155 16.7747 305.734 17.0893 305.254 17.324C304.785 17.548 304.267 17.66 303.702 17.66ZM303.446 16.7C303.894 16.7 304.31 16.6093 304.694 16.428C305.078 16.2467 305.409 15.996 305.686 15.676C305.963 15.356 306.177 14.9987 306.326 14.604C306.475 14.1987 306.55 13.7827 306.55 13.356C306.55 12.7693 306.422 12.22 306.166 11.708C305.921 11.1853 305.574 10.7693 305.126 10.46C304.689 10.14 304.171 9.98 303.574 9.98C303.147 9.98 302.747 10.076 302.374 10.268C302.011 10.46 301.686 10.716 301.398 11.036C301.121 11.3453 300.891 11.6867 300.71 12.06V14.652C300.753 14.94 300.865 15.212 301.046 15.468C301.227 15.7133 301.451 15.9267 301.718 16.108C301.995 16.2893 302.283 16.4333 302.582 16.54C302.881 16.6467 303.169 16.7 303.446 16.7ZM309.545 5.82H310.633V15.612C310.633 16.028 310.708 16.3 310.857 16.428C311.006 16.556 311.188 16.62 311.401 16.62C311.593 16.62 311.785 16.5987 311.977 16.556C312.169 16.5133 312.334 16.4707 312.473 16.428L312.665 17.308C312.462 17.3933 312.212 17.4627 311.913 17.516C311.625 17.5693 311.374 17.596 311.161 17.596C310.67 17.596 310.276 17.452 309.977 17.164C309.689 16.876 309.545 16.4813 309.545 15.98V5.82ZM317.456 17.66C316.859 17.66 316.304 17.548 315.792 17.324C315.28 17.0893 314.838 16.7747 314.464 16.38C314.091 15.9747 313.798 15.5107 313.584 14.988C313.382 14.4653 313.28 13.9053 313.28 13.308C313.28 12.5293 313.456 11.8147 313.808 11.164C314.171 10.5133 314.667 9.996 315.296 9.612C315.926 9.21733 316.64 9.02 317.44 9.02C318.262 9.02 318.976 9.21733 319.584 9.612C320.203 10.0067 320.688 10.5293 321.04 11.18C321.392 11.82 321.568 12.524 321.568 13.292C321.568 13.3773 321.568 13.4627 321.568 13.548C321.568 13.6227 321.563 13.6813 321.552 13.724H314.416C314.47 14.3213 314.635 14.8547 314.912 15.324C315.2 15.7827 315.568 16.1507 316.016 16.428C316.475 16.6947 316.971 16.828 317.504 16.828C318.048 16.828 318.56 16.6893 319.04 16.412C319.531 16.1347 319.872 15.772 320.064 15.324L321.008 15.58C320.838 15.9747 320.576 16.332 320.224 16.652C319.872 16.972 319.456 17.2227 318.976 17.404C318.507 17.5747 318 17.66 317.456 17.66ZM314.384 12.94H320.544C320.502 12.332 320.336 11.7987 320.048 11.34C319.771 10.8813 319.403 10.524 318.944 10.268C318.496 10.0013 318 9.868 317.456 9.868C316.912 9.868 316.416 10.0013 315.968 10.268C315.52 10.524 315.152 10.8867 314.864 11.356C314.587 11.8147 314.427 12.3427 314.384 12.94ZM325.983 17.66C325.3 17.66 324.666 17.548 324.079 17.324C323.492 17.1 322.986 16.7587 322.559 16.3L323.007 15.532C323.476 15.9693 323.946 16.2893 324.415 16.492C324.895 16.684 325.402 16.78 325.935 16.78C326.586 16.78 327.114 16.652 327.519 16.396C327.924 16.1293 328.127 15.7507 328.127 15.26C328.127 14.9293 328.026 14.6787 327.823 14.508C327.631 14.3267 327.348 14.1827 326.975 14.076C326.612 13.9587 326.175 13.836 325.663 13.708C325.087 13.548 324.602 13.3827 324.207 13.212C323.823 13.0307 323.53 12.8067 323.327 12.54C323.135 12.2627 323.039 11.9053 323.039 11.468C323.039 10.924 323.172 10.476 323.439 10.124C323.716 9.76133 324.09 9.48933 324.559 9.308C325.039 9.116 325.572 9.02 326.159 9.02C326.799 9.02 327.364 9.12133 327.855 9.324C328.346 9.52667 328.746 9.80933 329.055 10.172L328.527 10.908C328.228 10.5667 327.871 10.316 327.455 10.156C327.05 9.98533 326.596 9.9 326.095 9.9C325.754 9.9 325.428 9.948 325.119 10.044C324.81 10.1293 324.554 10.2787 324.351 10.492C324.159 10.6947 324.063 10.9773 324.063 11.34C324.063 11.6387 324.138 11.8733 324.287 12.044C324.436 12.204 324.66 12.3427 324.959 12.46C325.258 12.5667 325.626 12.684 326.063 12.812C326.692 12.9827 327.242 13.1587 327.711 13.34C328.18 13.5107 328.543 13.7347 328.799 14.012C329.055 14.2893 329.183 14.6787 329.183 15.18C329.183 15.9587 328.89 16.5667 328.303 17.004C327.716 17.4413 326.943 17.66 325.983 17.66ZM334.499 13.356C334.499 12.5667 334.659 11.8467 334.979 11.196C335.31 10.5347 335.763 10.0067 336.339 9.612C336.915 9.21733 337.571 9.02 338.307 9.02C339.001 9.02 339.619 9.20667 340.163 9.58C340.718 9.94267 341.15 10.3853 341.459 10.908V5.82H342.547V16.188C342.547 16.3373 342.579 16.4493 342.643 16.524C342.707 16.588 342.803 16.6253 342.931 16.636V17.5C342.718 17.532 342.553 17.5427 342.435 17.532C342.211 17.5213 342.014 17.4307 341.843 17.26C341.673 17.0893 341.587 16.9027 341.587 16.7V15.884C341.257 16.428 340.809 16.86 340.243 17.18C339.678 17.5 339.091 17.66 338.483 17.66C337.907 17.66 337.374 17.5427 336.883 17.308C336.403 17.0733 335.982 16.7533 335.619 16.348C335.267 15.9427 334.99 15.484 334.787 14.972C334.595 14.4493 334.499 13.9107 334.499 13.356ZM341.459 14.636V12.06C341.321 11.676 341.097 11.3293 340.787 11.02C340.478 10.7 340.126 10.4493 339.731 10.268C339.347 10.076 338.963 9.98 338.579 9.98C338.131 9.98 337.726 10.076 337.363 10.268C337.001 10.4493 336.686 10.7 336.419 11.02C336.163 11.34 335.966 11.7027 335.827 12.108C335.689 12.5133 335.619 12.9293 335.619 13.356C335.619 13.804 335.694 14.2307 335.843 14.636C336.003 15.0413 336.227 15.404 336.515 15.724C336.803 16.0333 337.134 16.2733 337.507 16.444C337.881 16.6147 338.286 16.7 338.723 16.7C339.001 16.7 339.289 16.6467 339.587 16.54C339.886 16.4333 340.169 16.2893 340.435 16.108C340.713 15.916 340.942 15.692 341.123 15.436C341.305 15.18 341.417 14.9133 341.459 14.636ZM344.34 15.1C344.34 14.5773 344.49 14.1293 344.789 13.756C345.087 13.372 345.498 13.0787 346.021 12.876C346.554 12.6627 347.167 12.556 347.861 12.556C348.266 12.556 348.687 12.588 349.125 12.652C349.562 12.716 349.951 12.812 350.293 12.94V12.236C350.293 11.532 350.085 10.972 349.669 10.556C349.253 10.14 348.677 9.932 347.941 9.932C347.493 9.932 347.05 10.0173 346.613 10.188C346.186 10.348 345.738 10.588 345.269 10.908L344.853 10.14C345.397 9.76667 345.93 9.48933 346.453 9.308C346.975 9.116 347.509 9.02 348.053 9.02C349.077 9.02 349.887 9.31333 350.485 9.9C351.082 10.4867 351.381 11.2973 351.381 12.332V16.188C351.381 16.3373 351.413 16.4493 351.477 16.524C351.541 16.588 351.642 16.6253 351.781 16.636V17.5C351.663 17.5107 351.562 17.5213 351.477 17.532C351.391 17.5427 351.327 17.5427 351.285 17.532C351.018 17.5213 350.815 17.436 350.677 17.276C350.538 17.116 350.463 16.9453 350.453 16.764L350.437 16.156C350.063 16.636 349.578 17.0093 348.981 17.276C348.383 17.532 347.775 17.66 347.157 17.66C346.623 17.66 346.138 17.548 345.701 17.324C345.274 17.0893 344.938 16.78 344.693 16.396C344.458 16.0013 344.34 15.5693 344.34 15.1ZM349.925 15.74C350.042 15.5907 350.133 15.4467 350.197 15.308C350.261 15.1693 350.293 15.0467 350.293 14.94V13.724C349.93 13.5853 349.551 13.4787 349.157 13.404C348.773 13.3293 348.383 13.292 347.989 13.292C347.21 13.292 346.581 13.4467 346.101 13.756C345.621 14.0653 345.381 14.4867 345.381 15.02C345.381 15.3293 345.461 15.6227 345.621 15.9C345.781 16.1667 346.015 16.3907 346.325 16.572C346.634 16.7427 346.997 16.828 347.413 16.828C347.935 16.828 348.421 16.7267 348.869 16.524C349.327 16.3213 349.679 16.06 349.925 15.74ZM360.739 17.5H359.651V12.844C359.651 11.8627 359.507 11.148 359.219 10.7C358.931 10.2413 358.478 10.012 357.859 10.012C357.433 10.012 357.011 10.1187 356.595 10.332C356.179 10.5347 355.811 10.8173 355.491 11.18C355.182 11.532 354.958 11.9373 354.819 12.396V17.5H353.731V9.164H354.723V11.052C354.947 10.6467 355.241 10.2947 355.603 9.996C355.966 9.68667 356.377 9.44667 356.835 9.276C357.294 9.10533 357.769 9.02 358.259 9.02C358.718 9.02 359.107 9.10533 359.427 9.276C359.747 9.44667 360.003 9.692 360.195 10.012C360.387 10.3213 360.526 10.7 360.611 11.148C360.697 11.5853 360.739 12.076 360.739 12.62V17.5ZM365.795 17.66C365.113 17.66 364.478 17.548 363.891 17.324C363.305 17.1 362.798 16.7587 362.371 16.3L362.819 15.532C363.289 15.9693 363.758 16.2893 364.227 16.492C364.707 16.684 365.214 16.78 365.747 16.78C366.398 16.78 366.926 16.652 367.331 16.396C367.737 16.1293 367.939 15.7507 367.939 15.26C367.939 14.9293 367.838 14.6787 367.635 14.508C367.443 14.3267 367.161 14.1827 366.787 14.076C366.425 13.9587 365.987 13.836 365.475 13.708C364.899 13.548 364.414 13.3827 364.019 13.212C363.635 13.0307 363.342 12.8067 363.139 12.54C362.947 12.2627 362.851 11.9053 362.851 11.468C362.851 10.924 362.985 10.476 363.251 10.124C363.529 9.76133 363.902 9.48933 364.371 9.308C364.851 9.116 365.385 9.02 365.971 9.02C366.611 9.02 367.177 9.12133 367.667 9.324C368.158 9.52667 368.558 9.80933 368.867 10.172L368.339 10.908C368.041 10.5667 367.683 10.316 367.267 10.156C366.862 9.98533 366.409 9.9 365.907 9.9C365.566 9.9 365.241 9.948 364.931 10.044C364.622 10.1293 364.366 10.2787 364.163 10.492C363.971 10.6947 363.875 10.9773 363.875 11.34C363.875 11.6387 363.95 11.8733 364.099 12.044C364.249 12.204 364.473 12.3427 364.771 12.46C365.07 12.5667 365.438 12.684 365.875 12.812C366.505 12.9827 367.054 13.1587 367.523 13.34C367.993 13.5107 368.355 13.7347 368.611 14.012C368.867 14.2893 368.995 14.6787 368.995 15.18C368.995 15.9587 368.702 16.5667 368.115 17.004C367.529 17.4413 366.755 17.66 365.795 17.66ZM378.488 17.66C377.88 17.66 377.32 17.548 376.808 17.324C376.307 17.0893 375.864 16.7693 375.48 16.364C375.107 15.9587 374.813 15.4947 374.6 14.972C374.397 14.4493 374.296 13.8947 374.296 13.308C374.296 12.5187 374.472 11.7987 374.824 11.148C375.176 10.4973 375.667 9.98 376.296 9.596C376.925 9.212 377.651 9.02 378.472 9.02C379.251 9.02 379.939 9.20133 380.536 9.564C381.133 9.916 381.576 10.396 381.864 11.004L380.808 11.34C380.573 10.9133 380.243 10.5827 379.816 10.348C379.4 10.1027 378.936 9.98 378.424 9.98C377.869 9.98 377.363 10.124 376.904 10.412C376.445 10.7 376.077 11.0947 375.8 11.596C375.533 12.0973 375.4 12.668 375.4 13.308C375.4 13.9373 375.539 14.508 375.816 15.02C376.093 15.532 376.461 15.9427 376.92 16.252C377.379 16.5507 377.885 16.7 378.44 16.7C378.803 16.7 379.149 16.636 379.48 16.508C379.821 16.38 380.115 16.2093 380.36 15.996C380.616 15.772 380.787 15.532 380.872 15.276L381.944 15.596C381.795 15.9907 381.544 16.348 381.192 16.668C380.851 16.9773 380.445 17.2227 379.976 17.404C379.517 17.5747 379.021 17.66 378.488 17.66ZM387.175 17.66C386.578 17.66 386.023 17.548 385.511 17.324C384.999 17.0893 384.556 16.7747 384.183 16.38C383.81 15.9747 383.516 15.5107 383.303 14.988C383.1 14.4653 382.999 13.9053 382.999 13.308C382.999 12.5293 383.175 11.8147 383.527 11.164C383.89 10.5133 384.386 9.996 385.015 9.612C385.644 9.21733 386.359 9.02 387.159 9.02C387.98 9.02 388.695 9.21733 389.303 9.612C389.922 10.0067 390.407 10.5293 390.759 11.18C391.111 11.82 391.287 12.524 391.287 13.292C391.287 13.3773 391.287 13.4627 391.287 13.548C391.287 13.6227 391.282 13.6813 391.271 13.724H384.135C384.188 14.3213 384.354 14.8547 384.631 15.324C384.919 15.7827 385.287 16.1507 385.735 16.428C386.194 16.6947 386.69 16.828 387.223 16.828C387.767 16.828 388.279 16.6893 388.759 16.412C389.25 16.1347 389.591 15.772 389.783 15.324L390.727 15.58C390.556 15.9747 390.295 16.332 389.943 16.652C389.591 16.972 389.175 17.2227 388.695 17.404C388.226 17.5747 387.719 17.66 387.175 17.66ZM384.103 12.94H390.263C390.22 12.332 390.055 11.7987 389.767 11.34C389.49 10.8813 389.122 10.524 388.663 10.268C388.215 10.0013 387.719 9.868 387.175 9.868C386.631 9.868 386.135 10.0013 385.687 10.268C385.239 10.524 384.871 10.8867 384.583 11.356C384.306 11.8147 384.146 12.3427 384.103 12.94ZM396.888 17.1C396.802 17.132 396.669 17.1907 396.488 17.276C396.306 17.3613 396.088 17.436 395.832 17.5C395.576 17.564 395.298 17.596 395 17.596C394.69 17.596 394.397 17.5373 394.12 17.42C393.853 17.3027 393.64 17.1267 393.48 16.892C393.32 16.6467 393.24 16.348 393.24 15.996V10.028H392.088V9.164H393.24V6.348H394.328V9.164H396.248V10.028H394.328V15.692C394.349 15.9907 394.456 16.2147 394.648 16.364C394.85 16.5133 395.08 16.588 395.336 16.588C395.634 16.588 395.906 16.54 396.152 16.444C396.397 16.3373 396.546 16.2627 396.6 16.22L396.888 17.1ZM402.247 17.1C402.162 17.132 402.028 17.1907 401.847 17.276C401.666 17.3613 401.447 17.436 401.191 17.5C400.935 17.564 400.658 17.596 400.359 17.596C400.05 17.596 399.756 17.5373 399.479 17.42C399.212 17.3027 398.999 17.1267 398.839 16.892C398.679 16.6467 398.599 16.348 398.599 15.996V10.028H397.447V9.164H398.599V6.348H399.687V9.164H401.607V10.028H399.687V15.692C399.708 15.9907 399.815 16.2147 400.007 16.364C400.21 16.5133 400.439 16.588 400.695 16.588C400.994 16.588 401.266 16.54 401.511 16.444C401.756 16.3373 401.906 16.2627 401.959 16.22L402.247 17.1ZM407.066 17.66C406.468 17.66 405.914 17.548 405.402 17.324C404.89 17.0893 404.447 16.7747 404.074 16.38C403.7 15.9747 403.407 15.5107 403.194 14.988C402.991 14.4653 402.89 13.9053 402.89 13.308C402.89 12.5293 403.066 11.8147 403.418 11.164C403.78 10.5133 404.276 9.996 404.906 9.612C405.535 9.21733 406.25 9.02 407.05 9.02C407.871 9.02 408.586 9.21733 409.194 9.612C409.812 10.0067 410.298 10.5293 410.65 11.18C411.002 11.82 411.178 12.524 411.178 13.292C411.178 13.3773 411.178 13.4627 411.178 13.548C411.178 13.6227 411.172 13.6813 411.162 13.724H404.026C404.079 14.3213 404.244 14.8547 404.522 15.324C404.81 15.7827 405.178 16.1507 405.626 16.428C406.084 16.6947 406.58 16.828 407.114 16.828C407.658 16.828 408.17 16.6893 408.65 16.412C409.14 16.1347 409.482 15.772 409.674 15.324L410.618 15.58C410.447 15.9747 410.186 16.332 409.834 16.652C409.482 16.972 409.066 17.2227 408.586 17.404C408.116 17.5747 407.61 17.66 407.066 17.66ZM403.994 12.94H410.154C410.111 12.332 409.946 11.7987 409.658 11.34C409.38 10.8813 409.012 10.524 408.554 10.268C408.106 10.0013 407.61 9.868 407.066 9.868C406.522 9.868 406.026 10.0013 405.578 10.268C405.13 10.524 404.762 10.8867 404.474 11.356C404.196 11.8147 404.036 12.3427 403.994 12.94ZM418.977 17.5L415.601 9.164H416.737L419.585 16.412L422.449 9.164H423.521L420.145 17.5H418.977ZM425.028 17.5V9.164H426.116V17.5H425.028ZM425.028 7.42V5.82H426.116V7.42H425.028ZM428.561 5.82H429.649V15.612C429.649 16.028 429.723 16.3 429.873 16.428C430.022 16.556 430.203 16.62 430.417 16.62C430.609 16.62 430.801 16.5987 430.993 16.556C431.185 16.5133 431.35 16.4707 431.489 16.428L431.681 17.308C431.478 17.3933 431.227 17.4627 430.929 17.516C430.641 17.5693 430.39 17.596 430.177 17.596C429.686 17.596 429.291 17.452 428.993 17.164C428.705 16.876 428.561 16.4813 428.561 15.98V5.82ZM432.92 5.82H434.008V15.612C434.008 16.028 434.083 16.3 434.232 16.428C434.381 16.556 434.563 16.62 434.776 16.62C434.968 16.62 435.16 16.5987 435.352 16.556C435.544 16.5133 435.709 16.4707 435.848 16.428L436.04 17.308C435.837 17.3933 435.587 17.4627 435.288 17.516C435 17.5693 434.749 17.596 434.536 17.596C434.045 17.596 433.651 17.452 433.352 17.164C433.064 16.876 432.92 16.4813 432.92 15.98V5.82ZM440.831 17.66C440.234 17.66 439.679 17.548 439.167 17.324C438.655 17.0893 438.213 16.7747 437.839 16.38C437.466 15.9747 437.173 15.5107 436.959 14.988C436.757 14.4653 436.655 13.9053 436.655 13.308C436.655 12.5293 436.831 11.8147 437.183 11.164C437.546 10.5133 438.042 9.996 438.671 9.612C439.301 9.21733 440.015 9.02 440.815 9.02C441.637 9.02 442.351 9.21733 442.959 9.612C443.578 10.0067 444.063 10.5293 444.415 11.18C444.767 11.82 444.943 12.524 444.943 13.292C444.943 13.3773 444.943 13.4627 444.943 13.548C444.943 13.6227 444.938 13.6813 444.927 13.724H437.791C437.845 14.3213 438.01 14.8547 438.287 15.324C438.575 15.7827 438.943 16.1507 439.391 16.428C439.85 16.6947 440.346 16.828 440.879 16.828C441.423 16.828 441.935 16.6893 442.415 16.412C442.906 16.1347 443.247 15.772 443.439 15.324L444.383 15.58C444.213 15.9747 443.951 16.332 443.599 16.652C443.247 16.972 442.831 17.2227 442.351 17.404C441.882 17.5747 441.375 17.66 440.831 17.66ZM437.759 12.94H443.919C443.877 12.332 443.711 11.7987 443.423 11.34C443.146 10.8813 442.778 10.524 442.319 10.268C441.871 10.0013 441.375 9.868 440.831 9.868C440.287 9.868 439.791 10.0013 439.343 10.268C438.895 10.524 438.527 10.8867 438.239 11.356C437.962 11.8147 437.802 12.3427 437.759 12.94Z" fill="black"/>
</svg>
